Coordinates
version=1
nRows=13
nColumns=22
inDegrees=yes

Units are S.I. units (second, meters, Newtons, ...)
If the header above contains a line with 'inDegrees', this indicates whether rotational values are in degrees (yes) or radians (no).

endheader
time	pelvis_tilt	pelvis_list	pelvis_rotation	pelvis_tx	pelvis_ty	pelvis_tz	hip_flexion_r	hip_adduction_r	hip_rotation_r	knee_angle_r	ankle_angle_r	subtalar_angle_r	hip_flexion_l	hip_adduction_l	hip_rotation_l	knee_angle_l	ankle_angle_l	subtalar_angle_l	lumbar_extension	lumbar_bending	lumbar_rotation
      0.01000000	    -11.42621674	     -1.96286990	     -3.97027402	     -0.75764744	      0.98172344	      0.16094813	     16.43799567	      3.63809835	     -4.29855318	    -16.17540824	     16.80050487	     -5.76434440	     15.26705555	     -2.56835491	     -5.39110795	    -16.57446292	     19.67721543	     -1.74854532	      7.45876673	      4.12507218	      4.25695737
      0.02000000	    -11.42353508	     -1.97845327	     -3.97309146	     -0.75765021	      0.98172526	      0.16085339	     16.42847914	      3.65048970	     -4.27857666	    -16.16286361	     16.78337454	     -5.73719128	     15.26407604	     -2.57686847	     -5.37606427	    -16.57664552	     19.71171322	     -1.75694813	      7.46742041	      4.15120132	      4.21544307
      0.03000000	    -11.41755330	     -1.98260901	     -3.97557313	     -0.75764763	      0.98172864	      0.16075583	     16.42356957	      3.64821357	     -4.27850528	    -16.16585641	     16.78282060	     -5.73522547	     15.25971822	     -2.57442339	     -5.37453008	    -16.58274170	     19.71219048	     -1.75760311	      7.47813925	      4.15606062	      4.21292700
      0.04000000	    -11.39677703	     -2.00859841	     -3.95672770	     -0.75766159	      0.98175122	      0.16060655	     16.39282741	      3.65970123	     -4.30866335	    -16.15045126	     16.78582267	     -5.67282641	     15.24943306	     -2.58796777	     -5.34874749	    -16.60192800	     19.73890436	     -1.77921672	      7.46523517	      4.18878202	      4.15389010
      0.05000000	    -11.39100121	     -2.00999775	     -3.96400091	     -0.75768713	      0.98174991	      0.16049600	     16.39126019	      3.65413244	     -4.30736636	    -16.15430481	     16.78559548	     -5.67169285	     15.24500068	     -2.58234631	     -5.34895978	    -16.60509339	     19.73895910	     -1.77962262	      7.47336835	      4.19610392	      4.14812924
      0.06000000	    -11.38454883	     -2.00669916	     -3.97277639	     -0.75773856	      0.98174492	      0.16039003	     16.39640937	      3.64384392	     -4.30180976	    -16.16866279	     16.78860210	     -5.66488762	     15.23795009	     -2.57313038	     -5.36076494	    -16.59979271	     19.74425905	     -1.78326431	      7.47429341	      4.20058574	      4.11585767
      0.07000000	    -11.37853540	     -2.00701616	     -3.97845812	     -0.75777230	      0.98173880	      0.16029337	     16.39463454	      3.63769744	     -4.30112774	    -16.17260516	     16.78971988	     -5.66363824	     15.23471950	     -2.56776459	     -5.36205722	    -16.60431718	     19.74507605	     -1.78407482	      7.48240091	      4.20581733	      4.11150105
      0.08000000	    -11.37280705	     -2.00543662	     -3.98763563	     -0.75781717	      0.98172810	      0.16020505	     16.39531536	      3.63028752	     -4.29996639	    -16.17813732	     16.79186368	     -5.66185832	     15.23212897	     -2.56141928	     -5.36613859	    -16.60850778	     19.74732362	     -1.78554061	      7.48721151	      4.21139252	      4.10188190
      0.09000000	    -11.36452500	     -1.99830521	     -3.99438575	     -0.75789228	      0.98171544	      0.16013810	     16.40564242	      3.61794357	     -4.29315605	    -16.20524670	     16.80457950	     -5.65281367	     15.23122376	     -2.55331786	     -5.39323068	    -16.61473497	     19.76013737	     -1.79388146	      7.48053652	      4.20593253	      4.07132991
      0.10000000	    -11.35925501	     -1.99943407	     -3.99945819	     -0.75792823	      0.98170548	      0.16007656	     16.40433853	      3.61503731	     -4.29332390	    -16.20879606	     16.80646378	     -5.65155689	     15.22967269	     -2.55157283	     -5.39395938	    -16.62034524	     19.76103798	     -1.79495581	      7.48609594	      4.20773552	      4.07106969
      0.11000000	    -11.34701966	     -2.00580083	     -4.00435297	     -0.75800240	      0.98169496	      0.16002874	     16.40756979	      3.61759857	     -4.29270916	    -16.23269266	     16.82286480	     -5.63874278	     15.23408498	     -2.55923439	     -5.41144724	    -16.64739691	     19.77683715	     -1.80648246	      7.47180884	      4.21222968	      4.06713480
      0.12000000	    -11.34421458	     -2.00814526	     -4.00539213	     -0.75805319	      0.98168684	      0.15997795	     16.40806371	      3.61723138	     -4.29262798	    -16.23250750	     16.82292338	     -5.63864917	     15.23483714	     -2.55887437	     -5.41145360	    -16.64737080	     19.77694758	     -1.80655573	      7.47269953	      4.21164307	      4.06692061
      0.13000000	    -11.32504353	     -2.03287231	     -4.00069298	     -0.75815713	      0.98169300	      0.15993132	     16.40194475	      3.64032232	     -4.28422241	    -16.25305502	     16.82291037	     -5.63055972	     15.24470084	     -2.58342360	     -5.40309235	    -16.69566939	     19.79245973	     -1.81424653	      7.44013195	      4.23424848	      4.05060292
